<svg xmlns="http://www.w3.org/2000/svg" width="1920" height="1080" viewBox="0 0 1920 1080">
<rect x="0" y="0" width="1920" height="1080" fill="#ffffff"/>
<text x="334.0" y="216" font-family="Open Sans, Segoe UI, Arial, sans-serif" font-size="16" font-weight="700" fill="#5e787a" text-anchor="middle">Innhenting</text>
<rect x="422" y="190" width="152" height="40" rx="20" fill="#ecfeed" stroke="#00824d" stroke-width="1.5"/>
<text x="498.0" y="216" font-family="Open Sans, Segoe UI, Arial, sans-serif" font-size="16" font-weight="700" fill="#00824d" text-anchor="middle">Kildedata</text>
<rect x="586" y="190" width="152" height="40" rx="20" fill="#ecfeed" stroke="#00824d" stroke-width="1.5"/>
<text x="662.0" y="216" font-family="Open Sans, Segoe UI, Arial, sans-serif" font-size="16" font-weight="700" fill="#00824d" text-anchor="middle">Inndata</text>
<rect x="750" y="190" width="152" height="40" rx="20" fill="#ecfeed" stroke="#00824d" stroke-width="1.5"/>
<text x="826.0" y="216" font-family="Open Sans, Segoe UI, Arial, sans-serif" font-size="16" font-weight="700" fill="#00824d" text-anchor="middle">Klargjorte data</text>
<rect x="914" y="190" width="152" height="40" rx="20" fill="#ecfeed" stroke="#00824d" stroke-width="1.5"/>
<text x="990.0" y="216" font-family="Open Sans, Segoe UI, Arial, sans-serif" font-size="16" font-weight="700" fill="#00824d" text-anchor="middle">Statistikk</text>
<rect x="1078" y="190" width="152" height="40" rx="20" fill="#ecfeed" stroke="#00824d" stroke-width="1.5"/>
<text x="1154.0" y="216" font-family="Open Sans, Segoe UI, Arial, sans-serif" font-size="16" font-weight="700" fill="#00824d" text-anchor="middle">Utdata</text>
<text x="1318.0" y="216" font-family="Open Sans, Segoe UI, Arial, sans-serif" font-size="16" font-weight="700" fill="#5e787a" text-anchor="middle">Formidling</text>
<text x="60" y="216" font-family="Open Sans, Segoe UI, Arial, sans-serif" font-size="16" font-weight="700" fill="#5e787a" text-anchor="start">Datatilstand →</text>
<rect x="60" y="244" width="1340" height="118" rx="10" fill="#f3f5f5" stroke="#b9c5c6" stroke-width="1.5"/>
<text x="76" y="274" font-family="Open Sans, Segoe UI, Arial, sans-serif" font-size="18" font-weight="700" fill="#1e3a3f" text-anchor="start">Utenfor Dapla</text>
<text x="76" y="296" font-family="Open Sans, Segoe UI, Arial, sans-serif" font-size="14" font-weight="400" fill="#5e787a" text-anchor="start">kilder og mottakere</text>
<rect x="60" y="372" width="1340" height="118" rx="10" fill="#f1f1fe" stroke="#7d5fea" stroke-width="1.5"/>
<text x="76" y="402" font-family="Open Sans, Segoe UI, Arial, sans-serif" font-size="18" font-weight="700" fill="#1e3a3f" text-anchor="start">Kildeprosjekt</text>
<text x="76" y="424" font-family="Open Sans, Segoe UI, Arial, sans-serif" font-size="14" font-weight="400" fill="#5e787a" text-anchor="start">per team</text>
<rect x="60" y="500" width="1340" height="160" rx="10" fill="#f1f1fe" stroke="#7d5fea" stroke-width="1.5"/>
<text x="76" y="530" font-family="Open Sans, Segoe UI, Arial, sans-serif" font-size="18" font-weight="700" fill="#1e3a3f" text-anchor="start">Standardprosjekt</text>
<text x="76" y="552" font-family="Open Sans, Segoe UI, Arial, sans-serif" font-size="14" font-weight="400" fill="#5e787a" text-anchor="start">per team</text>
<rect x="60" y="670" width="1340" height="118" rx="10" fill="#eff8fa" stroke="#c4dddb" stroke-width="1.5"/>
<text x="76" y="700" font-family="Open Sans, Segoe UI, Arial, sans-serif" font-size="18" font-weight="700" fill="#1e3a3f" text-anchor="start">Felles tjenester</text>
<text x="76" y="722" font-family="Open Sans, Segoe UI, Arial, sans-serif" font-size="14" font-weight="400" fill="#5e787a" text-anchor="start">driftes én gang</text>
<rect x="60" y="798" width="1340" height="186" rx="10" fill="#ffffff" stroke="#274246" stroke-width="2"/>
<text x="76" y="828" font-family="Open Sans, Segoe UI, Arial, sans-serif" font-size="18" font-weight="700" fill="#1e3a3f" text-anchor="start">Hva starter steget?</text>
<text x="76" y="850" font-family="Open Sans, Segoe UI, Arial, sans-serif" font-size="14" font-weight="400" fill="#5e787a" text-anchor="start">kontrollflyt</text>
<line x1="416" y1="244" x2="416" y2="788" stroke="#e6ebeb" stroke-width="1"/>
<line x1="580" y1="244" x2="580" y2="788" stroke="#e6ebeb" stroke-width="1"/>
<line x1="744" y1="244" x2="744" y2="788" stroke="#e6ebeb" stroke-width="1"/>
<line x1="908" y1="244" x2="908" y2="788" stroke="#e6ebeb" stroke-width="1"/>
<line x1="1072" y1="244" x2="1072" y2="788" stroke="#e6ebeb" stroke-width="1"/>
<line x1="1236" y1="244" x2="1236" y2="788" stroke="#e6ebeb" stroke-width="1"/>
<rect x="262.0" y="262" width="144" height="82" rx="8" fill="#ffffff" stroke="#274246" stroke-width="2"/>
<text x="334.0" y="290" font-family="Open Sans, Segoe UI, Arial, sans-serif" font-size="15" font-weight="600" fill="#1e3a3f" text-anchor="middle">On-prem og</text>
<text x="334.0" y="309" font-family="Open Sans, Segoe UI, Arial, sans-serif" font-size="15" font-weight="600" fill="#1e3a3f" text-anchor="middle">eksterne kilder</text>
<text x="334.0" y="332" font-family="Open Sans, Segoe UI, Arial, sans-serif" font-size="12" font-weight="400" fill="#5e787a" text-anchor="middle">filer · Oracle · Altinn</text>
<rect x="1246.0" y="262" width="144" height="82" rx="8" fill="#ffffff" stroke="#5e787a" stroke-width="1.8" stroke-dasharray="5 4"/>
<text x="1318.0" y="292" font-family="Open Sans, Segoe UI, Arial, sans-serif" font-size="15" font-weight="600" fill="#5e787a" text-anchor="middle">Statistikkbanken</text>
<text x="1318.0" y="311" font-family="Open Sans, Segoe UI, Arial, sans-serif" font-size="15" font-weight="600" fill="#5e787a" text-anchor="middle">Microdata.no</text>
<text x="1318.0" y="334" font-family="Open Sans, Segoe UI, Arial, sans-serif" font-size="12" font-weight="400" fill="#5e787a" text-anchor="middle">leveransevei ?</text>
<path d="M438.0,400 L438.0,462 A60.0,14 0 0 0 558.0,462 L558.0,400" fill="#00824d" stroke="#00824d" stroke-width="2"/>
<ellipse cx="498.0" cy="400" rx="60.0" ry="14" fill="#00824d" stroke="#00824d" stroke-width="2"/>
<text x="498.0" y="440" font-family="Open Sans, Segoe UI, Arial, sans-serif" font-size="15" font-weight="700" fill="#ffffff" text-anchor="middle">Kildebøtte</text>
<rect x="588" y="512" width="640" height="136" rx="10" fill="#ffffff" stroke="#00824d" stroke-width="1.5"/>
<text x="602" y="534" font-family="Open Sans, Segoe UI, Arial, sans-serif" font-size="14" font-weight="700" fill="#00824d" text-anchor="start">Produktbøtte</text>
<path d="M610.0,560 L610.0,616 A52.0,14 0 0 0 714.0,616 L714.0,560" fill="#b6e9b8" stroke="#00824d" stroke-width="2"/>
<ellipse cx="662.0" cy="560" rx="52.0" ry="14" fill="#b6e9b8" stroke="#00824d" stroke-width="2"/>
<text x="662.0" y="596" font-family="Open Sans, Segoe UI, Arial, sans-serif" font-size="14" font-weight="700" fill="#1e3a3f" text-anchor="middle">inndata</text>
<path d="M774.0,560 L774.0,616 A52.0,14 0 0 0 878.0,616 L878.0,560" fill="#b6e9b8" stroke="#00824d" stroke-width="2"/>
<ellipse cx="826.0" cy="560" rx="52.0" ry="14" fill="#b6e9b8" stroke="#00824d" stroke-width="2"/>
<text x="826.0" y="596" font-family="Open Sans, Segoe UI, Arial, sans-serif" font-size="14" font-weight="700" fill="#1e3a3f" text-anchor="middle">klargjorte</text>
<path d="M938.0,560 L938.0,616 A52.0,14 0 0 0 1042.0,616 L1042.0,560" fill="#b6e9b8" stroke="#00824d" stroke-width="2"/>
<ellipse cx="990.0" cy="560" rx="52.0" ry="14" fill="#b6e9b8" stroke="#00824d" stroke-width="2"/>
<text x="990.0" y="596" font-family="Open Sans, Segoe UI, Arial, sans-serif" font-size="14" font-weight="700" fill="#1e3a3f" text-anchor="middle">statistikk</text>
<path d="M1102.0,560 L1102.0,616 A52.0,14 0 0 0 1206.0,616 L1206.0,560" fill="#b6e9b8" stroke="#00824d" stroke-width="2"/>
<ellipse cx="1154.0" cy="560" rx="52.0" ry="14" fill="#b6e9b8" stroke="#00824d" stroke-width="2"/>
<text x="1154.0" y="596" font-family="Open Sans, Segoe UI, Arial, sans-serif" font-size="14" font-weight="700" fill="#1e3a3f" text-anchor="middle">utdata</text>
<path d="M1266.0,560 L1266.0,616 A52.0,14 0 0 0 1370.0,616 L1370.0,560" fill="#ecfeed" stroke="#00824d" stroke-width="2"/>
<ellipse cx="1318.0" cy="560" rx="52.0" ry="14" fill="#ecfeed" stroke="#00824d" stroke-width="2"/>
<text x="1318.0" y="596" font-family="Open Sans, Segoe UI, Arial, sans-serif" font-size="14" font-weight="700" fill="#1e3a3f" text-anchor="middle">Delt-bøtte</text>
<rect x="260" y="686" width="148" height="86" rx="8" fill="#ffffff" stroke="#274246" stroke-width="1.5"/>
<text x="334.0" y="714" font-family="Open Sans, Segoe UI, Arial, sans-serif" font-size="14" font-weight="600" fill="#1e3a3f" text-anchor="middle">Transfer Service</text>
<text x="334.0" y="733" font-family="Open Sans, Segoe UI, Arial, sans-serif" font-size="14" font-weight="600" fill="#1e3a3f" text-anchor="middle">SUV-API (ORDS)</text>
<text x="334.0" y="756" font-family="Open Sans, Segoe UI, Arial, sans-serif" font-size="12" font-weight="400" fill="#5e787a" text-anchor="middle">ORDS midlertidig</text>
<rect x="424" y="686" width="148" height="86" rx="8" fill="#ffffff" stroke="#5e787a" stroke-width="1.5" stroke-dasharray="5 4"/>
<text x="498.0" y="722" font-family="Open Sans, Segoe UI, Arial, sans-serif" font-size="15" font-weight="600" fill="#5e787a" text-anchor="middle">Pseudo-</text>
<text x="498.0" y="741" font-family="Open Sans, Segoe UI, Arial, sans-serif" font-size="15" font-weight="600" fill="#5e787a" text-anchor="middle">nøkler</text>
<rect x="588" y="686" width="640" height="86" rx="8" fill="#ffffff" stroke="#274246" stroke-width="1.5"/>
<text x="990.0" y="718" font-family="Open Sans, Segoe UI, Arial, sans-serif" font-size="15" font-weight="600" fill="#1e3a3f" text-anchor="middle">Metadatatjenester</text>
<text x="990.0" y="740" font-family="Open Sans, Segoe UI, Arial, sans-serif" font-size="13" font-weight="400" fill="#5e787a" text-anchor="middle">Datadoc · Vardef · Klass</text>
<rect x="1244" y="686" width="148" height="86" rx="8" fill="#ffffff" stroke="#274246" stroke-width="1.5"/>
<text x="1318.0" y="722" font-family="Open Sans, Segoe UI, Arial, sans-serif" font-size="15" font-weight="600" fill="#1e3a3f" text-anchor="middle">SSB</text>
<text x="1318.0" y="741" font-family="Open Sans, Segoe UI, Arial, sans-serif" font-size="15" font-weight="600" fill="#1e3a3f" text-anchor="middle">Dataportal</text>
<polyline points="334.0,344.0 334.0,430.0 428.0,430.0" fill="none" stroke="#00824d" stroke-width="3" stroke-linejoin="round" stroke-linecap="round"/>
<polygon points="436.0,430.0 421.0,437.0 421.0,423.0" fill="#00824d"/>
<polyline points="558.0,430.0 580.0,430.0 580.0,588.0 600.0,588.0" fill="none" stroke="#00824d" stroke-width="3" stroke-linejoin="round" stroke-linecap="round"/>
<polygon points="608.0,588.0 593.0,595.0 593.0,581.0" fill="#00824d"/>
<rect x="590" y="446" width="116" height="26" rx="13" fill="#ffffff" stroke="#00824d" stroke-width="1.5"/>
<text x="648" y="464" font-family="Open Sans, Segoe UI, Arial, sans-serif" font-size="14" font-weight="700" fill="#00824d" text-anchor="middle">Kildomaten</text>
<polyline points="714.0,588.0 764.0,588.0" fill="none" stroke="#00824d" stroke-width="3" stroke-linejoin="round" stroke-linecap="round"/>
<polygon points="772.0,588.0 757.0,595.0 757.0,581.0" fill="#00824d"/>
<polyline points="878.0,588.0 928.0,588.0" fill="none" stroke="#00824d" stroke-width="3" stroke-linejoin="round" stroke-linecap="round"/>
<polygon points="936.0,588.0 921.0,595.0 921.0,581.0" fill="#00824d"/>
<polyline points="1042.0,588.0 1092.0,588.0" fill="none" stroke="#00824d" stroke-width="3" stroke-linejoin="round" stroke-linecap="round"/>
<polygon points="1100.0,588.0 1085.0,595.0 1085.0,581.0" fill="#00824d"/>
<polyline points="1206.0,588.0 1256.0,588.0" fill="none" stroke="#00824d" stroke-width="3" stroke-linejoin="round" stroke-linecap="round"/>
<polygon points="1264.0,588.0 1249.0,595.0 1249.0,581.0" fill="#00824d"/>
<polyline points="1318.0,546.0 1318.0,354.0" fill="none" stroke="#00824d" stroke-width="2.5" stroke-linejoin="round" stroke-linecap="round" stroke-dasharray="5 4"/>
<polygon points="1318.0,346.0 1325.0,361.0 1311.0,361.0" fill="#00824d"/>
<polyline points="990.0,648.0 990.0,676.8" fill="none" stroke="#274246" stroke-width="2" stroke-linejoin="round" stroke-linecap="round" stroke-dasharray="5 4"/>
<polygon points="990.0,684.0 983.7,670.5 996.3,670.5" fill="#274246"/>
<text x="998.0" y="664" font-family="Open Sans, Segoe UI, Arial, sans-serif" font-size="12" font-weight="600" fill="#274246" text-anchor="start">dokumenteres</text>
<polyline points="498.0,686.0 498.0,490.0 568.8,490.0" fill="none" stroke="#5e787a" stroke-width="2" stroke-linejoin="round" stroke-linecap="round"/>
<polygon points="576.0,490.0 562.5,496.3 562.5,483.7" fill="#5e787a"/>
<text x="506.0" y="560" font-family="Open Sans, Segoe UI, Arial, sans-serif" font-size="12" font-weight="600" fill="#5e787a" text-anchor="start">nøkler</text>
<circle cx="396.0" cy="862" r="15" fill="#ffffff" stroke="#274246" stroke-width="3"/>
<polyline points="396.0,853 396.0,862 403.0,866" fill="none" stroke="#274246" stroke-width="3" stroke-linecap="round"/>
<rect x="416.0" y="850" width="40" height="24" rx="12" fill="#ffffff" stroke="#274246" stroke-width="2.5"/>
<text x="436.0" y="867" font-family="Open Sans, Segoe UI, Arial, sans-serif" font-size="12" font-weight="700" fill="#274246" text-anchor="middle">API</text>
<text x="416" y="904" font-family="Open Sans, Segoe UI, Arial, sans-serif" font-size="15" font-weight="600" fill="#274246" text-anchor="middle">Transfer: tidsplan</text>
<text x="416" y="923" font-family="Open Sans, Segoe UI, Arial, sans-serif" font-size="15" font-weight="400" fill="#274246" text-anchor="middle">ORDS: ved behov</text>
<polygon points="563.0,845 550.0,865 559.0,865 556.0,879 570.0,858 561.0,858" fill="#274246"/>
<circle cx="600.0" cy="862" r="15" fill="#274246"/>
<polyline points="593.0,862 598.0,868 608.0,856" fill="none" stroke="#ffffff" stroke-width="3.5" stroke-linecap="round" stroke-linejoin="round"/>
<text x="580" y="904" font-family="Open Sans, Segoe UI, Arial, sans-serif" font-size="15" font-weight="600" fill="#274246" text-anchor="middle">Ny fil starter</text>
<text x="580" y="923" font-family="Open Sans, Segoe UI, Arial, sans-serif" font-size="15" font-weight="400" fill="#274246" text-anchor="middle">Kildomaten</text>
<text x="580" y="942" font-family="Open Sans, Segoe UI, Arial, sans-serif" font-size="15" font-weight="400" fill="#274246" text-anchor="middle">(kode godkjent)</text>
<rect x="674" y="836" width="468" height="132" rx="10" fill="#f3f5f5" stroke="#f3f5f5" stroke-width="0"/>
<circle cx="744" cy="853.9" r="8.25" fill="#274246"/>
<path d="M729.15,881.4 C729.15,864.9 735.2,863.8 744,863.8 C752.8,863.8 758.85,864.9 758.85,881.4 Z" fill="#274246"/>
<circle cx="908" cy="853.9" r="8.25" fill="#274246"/>
<path d="M893.15,881.4 C893.15,864.9 899.2,863.8 908,863.8 C916.8,863.8 922.85,864.9 922.85,881.4 Z" fill="#274246"/>
<circle cx="1072" cy="853.9" r="8.25" fill="#274246"/>
<path d="M1057.15,881.4 C1057.15,864.9 1063.2,863.8 1072,863.8 C1080.8,863.8 1086.85,864.9 1086.85,881.4 Z" fill="#274246"/>
<text x="908" y="910" font-family="Open Sans, Segoe UI, Arial, sans-serif" font-size="16" font-weight="700" fill="#274246" text-anchor="middle">Manuelt i Dapla Lab</text>
<text x="908" y="932" font-family="Open Sans, Segoe UI, Arial, sans-serif" font-size="14" font-weight="400" fill="#274246" text-anchor="middle">Ingen felles runtime for automatisert</text>
<text x="908" y="951" font-family="Open Sans, Segoe UI, Arial, sans-serif" font-size="14" font-weight="400" fill="#274246" text-anchor="middle">kjøring utenfor Dapla Lab i dag</text>
<circle cx="1236.0" cy="853.9" r="8.25" fill="#274246"/>
<path d="M1221.15,881.4 C1221.15,864.9 1227.2,863.8 1236.0,863.8 C1244.8,863.8 1250.85,864.9 1250.85,881.4 Z" fill="#274246"/>
<text x="1236" y="904" font-family="Open Sans, Segoe UI, Arial, sans-serif" font-size="15" font-weight="600" fill="#274246" text-anchor="middle">Deling: IaC</text>
<text x="1236" y="923" font-family="Open Sans, Segoe UI, Arial, sans-serif" font-size="15" font-weight="400" fill="#274246" text-anchor="middle">Publisering: ?</text>
<text x="60" y="92" font-family="Open Sans, Segoe UI, Arial, sans-serif" font-size="46" font-weight="700" fill="#1e3a3f" text-anchor="start">Hva starter hvert steg, i dag</text>
<text x="60" y="136" font-family="Open Sans, Segoe UI, Arial, sans-serif" font-size="24" font-weight="400" fill="#5e787a" text-anchor="start">Teknisk prosess · kontrollflyt slik den fungerer nå</text>
<rect x="1520" y="62" width="150" height="40" rx="20" fill="#1e3a3f" stroke="#1e3a3f" stroke-width="0"/>
<text x="1595" y="89" font-family="Open Sans, Segoe UI, Arial, sans-serif" font-size="19" font-weight="700" fill="#ffffff" text-anchor="middle">INTERN</text>
<rect x="1690" y="62" width="170" height="40" rx="20" fill="#ffffff" stroke="#274246" stroke-width="2"/>
<text x="1775" y="89" font-family="Open Sans, Segoe UI, Arial, sans-serif" font-size="19" font-weight="700" fill="#274246" text-anchor="middle">I dag</text>
<line x1="60" y1="160" x2="1860" y2="160" stroke="#cdd3d4" stroke-width="2"/>
<rect x="1440" y="180" width="420" height="804" rx="16" fill="#eff8fa" stroke="#eff8fa" stroke-width="0"/>
<text x="1466" y="226" font-family="Open Sans, Segoe UI, Arial, sans-serif" font-size="25" font-weight="700" fill="#1e3a3f" text-anchor="start">Kontrollflyt i dag</text>
<circle cx="1485" cy="268" r="19" fill="#1e3a3f" stroke="#ffffff" stroke-width="3"/>
<text x="1485" y="276" font-family="Open Sans, Segoe UI, Arial, sans-serif" font-size="22" font-weight="700" fill="#ffffff" text-anchor="middle">1</text>
<text x="1516" y="276" font-family="Open Sans, Segoe UI, Arial, sans-serif" font-size="20" font-weight="700" fill="#1e3a3f" text-anchor="start">Inn: tidsplan eller API</text>
<text x="1516" y="303" font-family="Open Sans, Segoe UI, Arial, sans-serif" font-size="17" font-weight="400" fill="#274246" text-anchor="start">Transfer Service kjører maks én</text>
<text x="1516" y="326" font-family="Open Sans, Segoe UI, Arial, sans-serif" font-size="17" font-weight="400" fill="#274246" text-anchor="start">gang i timen. ORDS gir data ved</text>
<text x="1516" y="349" font-family="Open Sans, Segoe UI, Arial, sans-serif" font-size="17" font-weight="400" fill="#274246" text-anchor="start">behov (midlertidig, ADR0017).</text>
<circle cx="1485" cy="386" r="19" fill="#1e3a3f" stroke="#ffffff" stroke-width="3"/>
<text x="1485" y="394" font-family="Open Sans, Segoe UI, Arial, sans-serif" font-size="22" font-weight="700" fill="#ffffff" text-anchor="middle">2</text>
<text x="1516" y="394" font-family="Open Sans, Segoe UI, Arial, sans-serif" font-size="20" font-weight="700" fill="#1e3a3f" text-anchor="start">Kilde til inndata: automatisk</text>
<text x="1516" y="421" font-family="Open Sans, Segoe UI, Arial, sans-serif" font-size="17" font-weight="400" fill="#274246" text-anchor="start">Kildomaten starter på nye filer.</text>
<text x="1516" y="444" font-family="Open Sans, Segoe UI, Arial, sans-serif" font-size="17" font-weight="400" fill="#274246" text-anchor="start">Koden er godkjent av data-admins</text>
<text x="1516" y="467" font-family="Open Sans, Segoe UI, Arial, sans-serif" font-size="17" font-weight="400" fill="#274246" text-anchor="start">før den rulles ut.</text>
<circle cx="1485" cy="504" r="19" fill="#1e3a3f" stroke="#ffffff" stroke-width="3"/>
<text x="1485" y="512" font-family="Open Sans, Segoe UI, Arial, sans-serif" font-size="22" font-weight="700" fill="#ffffff" text-anchor="middle">3</text>
<text x="1516" y="512" font-family="Open Sans, Segoe UI, Arial, sans-serif" font-size="20" font-weight="700" fill="#1e3a3f" text-anchor="start">Resten er manuelt</text>
<text x="1516" y="539" font-family="Open Sans, Segoe UI, Arial, sans-serif" font-size="17" font-weight="400" fill="#274246" text-anchor="start">Teamene kjører koden selv i</text>
<text x="1516" y="562" font-family="Open Sans, Segoe UI, Arial, sans-serif" font-size="17" font-weight="400" fill="#274246" text-anchor="start">Dapla Lab. Det finnes ingen</text>
<text x="1516" y="585" font-family="Open Sans, Segoe UI, Arial, sans-serif" font-size="17" font-weight="400" fill="#274246" text-anchor="start">felles runtime for automatisert</text>
<text x="1516" y="608" font-family="Open Sans, Segoe UI, Arial, sans-serif" font-size="17" font-weight="400" fill="#274246" text-anchor="start">kjøring i dag.</text>
<circle cx="1485" cy="645" r="19" fill="#1e3a3f" stroke="#ffffff" stroke-width="3"/>
<text x="1485" y="653" font-family="Open Sans, Segoe UI, Arial, sans-serif" font-size="22" font-weight="700" fill="#ffffff" text-anchor="middle">4</text>
<text x="1516" y="653" font-family="Open Sans, Segoe UI, Arial, sans-serif" font-size="20" font-weight="700" fill="#1e3a3f" text-anchor="start">Ut: delvis uavklart</text>
<text x="1516" y="680" font-family="Open Sans, Segoe UI, Arial, sans-serif" font-size="17" font-weight="400" fill="#274246" text-anchor="start">Deling via delt-bøtter styres</text>
<text x="1516" y="703" font-family="Open Sans, Segoe UI, Arial, sans-serif" font-size="17" font-weight="400" fill="#274246" text-anchor="start">som IaC. Veien til publisering</text>
<text x="1516" y="726" font-family="Open Sans, Segoe UI, Arial, sans-serif" font-size="17" font-weight="400" fill="#274246" text-anchor="start">er ikke bekreftet.</text>
<circle cx="356" cy="846" r="19" fill="#1e3a3f" stroke="#ffffff" stroke-width="3"/>
<text x="356" y="854" font-family="Open Sans, Segoe UI, Arial, sans-serif" font-size="22" font-weight="700" fill="#ffffff" text-anchor="middle">1</text>
<circle cx="530" cy="846" r="19" fill="#1e3a3f" stroke="#ffffff" stroke-width="3"/>
<text x="530" y="854" font-family="Open Sans, Segoe UI, Arial, sans-serif" font-size="22" font-weight="700" fill="#ffffff" text-anchor="middle">2</text>
<circle cx="674" cy="836" r="19" fill="#1e3a3f" stroke="#ffffff" stroke-width="3"/>
<text x="674" y="844" font-family="Open Sans, Segoe UI, Arial, sans-serif" font-size="22" font-weight="700" fill="#ffffff" text-anchor="middle">3</text>
<circle cx="1186" cy="846" r="19" fill="#1e3a3f" stroke="#ffffff" stroke-width="3"/>
<text x="1186" y="854" font-family="Open Sans, Segoe UI, Arial, sans-serif" font-size="22" font-weight="700" fill="#ffffff" text-anchor="middle">4</text>
<line x1="60" y1="1010" x2="1860" y2="1010" stroke="#cdd3d4" stroke-width="1"/>
<polyline points="60.0,1040.0 92.8,1040.0" fill="none" stroke="#00824d" stroke-width="3" stroke-linejoin="round" stroke-linecap="round"/>
<polygon points="100.0,1040.0 86.5,1046.3 86.5,1033.7" fill="#00824d"/>
<text x="110" y="1046" font-family="Open Sans, Segoe UI, Arial, sans-serif" font-size="16" font-weight="400" fill="#274246" text-anchor="start">Dataflyt</text>
<circle cx="222" cy="1040" r="15" fill="#ffffff" stroke="#274246" stroke-width="3"/>
<polyline points="222,1031 222,1040 229,1044" fill="none" stroke="#274246" stroke-width="3" stroke-linecap="round"/>
<text x="244" y="1046" font-family="Open Sans, Segoe UI, Arial, sans-serif" font-size="16" font-weight="400" fill="#274246" text-anchor="start">Tidsplan</text>
<polygon points="349,1023 336,1043 345,1043 342,1057 356,1036 347,1036" fill="#274246"/>
<text x="364" y="1046" font-family="Open Sans, Segoe UI, Arial, sans-serif" font-size="16" font-weight="400" fill="#274246" text-anchor="start">Hendelse</text>
<circle cx="470" cy="1031.9" r="8.25" fill="#274246"/>
<path d="M455.15,1059.4 C455.15,1042.9 461.2,1041.8 470,1041.8 C478.8,1041.8 484.85,1042.9 484.85,1059.4 Z" fill="#274246"/>
<text x="490" y="1046" font-family="Open Sans, Segoe UI, Arial, sans-serif" font-size="16" font-weight="400" fill="#274246" text-anchor="start">Manuelt</text>
<circle cx="586" cy="1040" r="15" fill="#274246"/>
<polyline points="579,1040 584,1046 594,1034" fill="none" stroke="#ffffff" stroke-width="3.5" stroke-linecap="round" stroke-linejoin="round"/>
<text x="608" y="1046" font-family="Open Sans, Segoe UI, Arial, sans-serif" font-size="16" font-weight="400" fill="#274246" text-anchor="start">Godkjenning</text>
<rect x="716" y="1027" width="32" height="26" rx="4" fill="#ffffff" stroke="#274246" stroke-width="3"/>
<polygon points="727,1033 739,1040 727,1047" fill="#274246"/>
<text x="756" y="1046" font-family="Open Sans, Segoe UI, Arial, sans-serif" font-size="16" font-weight="400" fill="#274246" text-anchor="start">Container-jobb</text>
<rect x="880" y="1028" width="40" height="24" rx="12" fill="#ffffff" stroke="#274246" stroke-width="2.5"/>
<text x="900" y="1045" font-family="Open Sans, Segoe UI, Arial, sans-serif" font-size="12" font-weight="700" fill="#274246" text-anchor="middle">API</text>
<text x="928" y="1046" font-family="Open Sans, Segoe UI, Arial, sans-serif" font-size="16" font-weight="400" fill="#274246" text-anchor="start">Ved behov (API)</text>
<rect x="1070" y="1026" width="26" height="24" rx="4" fill="#ffffff" stroke="#5e787a" stroke-width="1.8" stroke-dasharray="5 4"/>
<text x="1106" y="1046" font-family="Open Sans, Segoe UI, Arial, sans-serif" font-size="16" font-weight="400" fill="#274246" text-anchor="start">Ubekreftet</text>
<text x="1860" y="1046" font-family="Open Sans, Segoe UI, Arial, sans-serif" font-size="15" font-weight="400" fill="#5e787a" text-anchor="end">Utkast 28.09.2026 · Kilder: Dapla-manualen, ADR0017, notat om orkestrering (forslag)</text>
</svg>
