<svg xmlns="http://www.w3.org/2000/svg" width="1920" height="1080" viewBox="0 0 1920 1080">
<rect x="0" y="0" width="1920" height="1080" fill="#ffffff"/>
<text x="60" y="92" font-family="Open Sans, Segoe UI, Arial, sans-serif" font-size="46" font-weight="700" fill="#1e3a3f" text-anchor="start">Søk med KI-støtte: hva endres, og når?</text>
<text x="60" y="136" font-family="Open Sans, Segoe UI, Arial, sans-serif" font-size="24" font-weight="400" fill="#5e787a" text-anchor="start">Fokus på F4: hvordan KI flytter arbeid fra redaksjonelt til maskinelt, trinn for trinn</text>
<rect x="1690" y="62" width="170" height="40" rx="20" fill="#ffffff" stroke="#274246" stroke-width="2"/>
<text x="1775.0" y="89" font-family="Open Sans, Segoe UI, Arial, sans-serif" font-size="19" font-weight="700" fill="#274246" text-anchor="middle">Fokus F4a</text>
<line x1="60" y1="160" x2="1860" y2="160" stroke="#cdd3d4" stroke-width="2"/>
<rect x="1440" y="180" width="420" height="806" rx="16" fill="#eff8fa" stroke="#eff8fa" stroke-width="0"/>
<text x="1466" y="226" font-family="Open Sans, Segoe UI, Arial, sans-serif" font-size="25" font-weight="700" fill="#1e3a3f" text-anchor="start">Slik leses figuren</text>
<circle cx="1485" cy="268" r="19" fill="#1e3a3f" stroke="#ffffff" stroke-width="3"/>
<text x="1485" y="276" font-family="Open Sans, Segoe UI, Arial, sans-serif" font-size="22" font-weight="700" fill="#ffffff" text-anchor="middle">1</text>
<text x="1516" y="276" font-family="Open Sans, Segoe UI, Arial, sans-serif" font-size="20" font-weight="700" fill="#1e3a3f" text-anchor="start">Forutsetning først, tid etterpå</text>
<text x="1516" y="303" font-family="Open Sans, Segoe UI, Arial, sans-serif" font-size="17" font-weight="400" fill="#274246" text-anchor="start">Hver horisont starter når</text>
<text x="1516" y="326" font-family="Open Sans, Segoe UI, Arial, sans-serif" font-size="17" font-weight="400" fill="#274246" text-anchor="start">forutsetningen er på plass.</text>
<text x="1516" y="349" font-family="Open Sans, Segoe UI, Arial, sans-serif" font-size="17" font-weight="400" fill="#274246" text-anchor="start">Årstallene er antatt.</text>
<circle cx="1485" cy="388" r="19" fill="#1e3a3f" stroke="#ffffff" stroke-width="3"/>
<text x="1485" y="396" font-family="Open Sans, Segoe UI, Arial, sans-serif" font-size="22" font-weight="700" fill="#ffffff" text-anchor="middle">2</text>
<text x="1516" y="396" font-family="Open Sans, Segoe UI, Arial, sans-serif" font-size="20" font-weight="700" fill="#1e3a3f" text-anchor="start">KI flytter arbeid, ikke ansvar</text>
<text x="1516" y="423" font-family="Open Sans, Segoe UI, Arial, sans-serif" font-size="17" font-weight="400" fill="#274246" text-anchor="start">Punktet i hver celle glir mot</text>
<text x="1516" y="446" font-family="Open Sans, Segoe UI, Arial, sans-serif" font-size="17" font-weight="400" fill="#274246" text-anchor="start">maskinelt. I trinn 4 og 5 stopper</text>
<text x="1516" y="469" font-family="Open Sans, Segoe UI, Arial, sans-serif" font-size="17" font-weight="400" fill="#274246" text-anchor="start">det ved grensen for faglig ansvar.</text>
<circle cx="1485" cy="508" r="19" fill="#1e3a3f" stroke="#ffffff" stroke-width="3"/>
<text x="1485" y="516" font-family="Open Sans, Segoe UI, Arial, sans-serif" font-size="22" font-weight="700" fill="#ffffff" text-anchor="middle">3</text>
<text x="1516" y="516" font-family="Open Sans, Segoe UI, Arial, sans-serif" font-size="20" font-weight="700" fill="#1e3a3f" text-anchor="start">Størst gevinst i trinn 2 og 3</text>
<text x="1516" y="543" font-family="Open Sans, Segoe UI, Arial, sans-serif" font-size="17" font-weight="400" fill="#274246" text-anchor="start">Fra brukerord til begrep og</text>
<text x="1516" y="566" font-family="Open Sans, Segoe UI, Arial, sans-serif" font-size="17" font-weight="400" fill="#274246" text-anchor="start">nærliggende statistikk kan KI</text>
<text x="1516" y="589" font-family="Open Sans, Segoe UI, Arial, sans-serif" font-size="17" font-weight="400" fill="#274246" text-anchor="start">gjøre mye, og tidlig.</text>
<circle cx="1485" cy="628" r="19" fill="#1e3a3f" stroke="#ffffff" stroke-width="3"/>
<text x="1485" y="636" font-family="Open Sans, Segoe UI, Arial, sans-serif" font-size="22" font-weight="700" fill="#ffffff" text-anchor="middle">4</text>
<text x="1516" y="636" font-family="Open Sans, Segoe UI, Arial, sans-serif" font-size="20" font-weight="700" fill="#1e3a3f" text-anchor="start">Her møtes søk og assistent</text>
<text x="1516" y="663" font-family="Open Sans, Segoe UI, Arial, sans-serif" font-size="17" font-weight="400" fill="#274246" text-anchor="start">På lang sikt glir søk over i</text>
<text x="1516" y="686" font-family="Open Sans, Segoe UI, Arial, sans-serif" font-size="17" font-weight="400" fill="#274246" text-anchor="start">dialog. Da gjelder rammene i F5.</text>
<circle cx="1485" cy="725" r="19" fill="#1e3a3f" stroke="#ffffff" stroke-width="3"/>
<text x="1485" y="733" font-family="Open Sans, Segoe UI, Arial, sans-serif" font-size="22" font-weight="700" fill="#ffffff" text-anchor="middle">5</text>
<text x="1516" y="733" font-family="Open Sans, Segoe UI, Arial, sans-serif" font-size="20" font-weight="700" fill="#1e3a3f" text-anchor="start">Alt er forslag</text>
<text x="1516" y="760" font-family="Open Sans, Segoe UI, Arial, sans-serif" font-size="17" font-weight="400" fill="#274246" text-anchor="start">Horisontene er et diskusjons-</text>
<text x="1516" y="783" font-family="Open Sans, Segoe UI, Arial, sans-serif" font-size="17" font-weight="400" fill="#274246" text-anchor="start">grunnlag, ikke en plan.</text>
<line x1="60" y1="1010" x2="1860" y2="1010" stroke="#cdd3d4" stroke-width="1"/>
<rect x="60" y="1026" width="26" height="24" rx="5" fill="#ffffff" stroke="#7d5fea" stroke-width="2" stroke-dasharray="6 4"/>
<text x="96" y="1046" font-family="Open Sans, Segoe UI, Arial, sans-serif" font-size="16" font-weight="400" fill="#274246" text-anchor="start">Horisont, forslag</text>
<rect x="272.2" y="1026" width="26" height="24" rx="5" fill="#ffffff" stroke="#5e787a" stroke-width="1.6" stroke-dasharray="5 4"/>
<text x="308.2" y="1046" font-family="Open Sans, Segoe UI, Arial, sans-serif" font-size="16" font-weight="400" fill="#274246" text-anchor="start">Tidshorisont antatt</text>
<text x="1860" y="1046" font-family="Open Sans, Segoe UI, Arial, sans-serif" font-size="15" font-weight="400" fill="#5e787a" text-anchor="end">29.09.2026 · Forslag til diskusjon, ikke kvalitetssikret</text>
<rect x="304" y="184" width="212" height="52" rx="8" fill="#f1f1fe" stroke="#f1f1fe" stroke-width="0"/>
<circle cx="326" cy="210" r="19" fill="#1e3a3f" stroke="#ffffff" stroke-width="3"/>
<text x="326" y="218" font-family="Open Sans, Segoe UI, Arial, sans-serif" font-size="22" font-weight="700" fill="#ffffff" text-anchor="middle">1</text>
<text x="350" y="216" font-family="Open Sans, Segoe UI, Arial, sans-serif" font-size="15" font-weight="700" fill="#4b2fb0" text-anchor="start">Treffliste</text>
<rect x="524" y="184" width="212" height="52" rx="8" fill="#f1f1fe" stroke="#f1f1fe" stroke-width="0"/>
<circle cx="546" cy="210" r="19" fill="#1e3a3f" stroke="#ffffff" stroke-width="3"/>
<text x="546" y="218" font-family="Open Sans, Segoe UI, Arial, sans-serif" font-size="22" font-weight="700" fill="#ffffff" text-anchor="middle">2</text>
<text x="570" y="216" font-family="Open Sans, Segoe UI, Arial, sans-serif" font-size="15" font-weight="700" fill="#4b2fb0" text-anchor="start">Ord til begrep</text>
<rect x="744" y="184" width="212" height="52" rx="8" fill="#f1f1fe" stroke="#f1f1fe" stroke-width="0"/>
<circle cx="766" cy="210" r="19" fill="#1e3a3f" stroke="#ffffff" stroke-width="3"/>
<text x="766" y="218" font-family="Open Sans, Segoe UI, Arial, sans-serif" font-size="22" font-weight="700" fill="#ffffff" text-anchor="middle">3</text>
<text x="790" y="206" font-family="Open Sans, Segoe UI, Arial, sans-serif" font-size="15" font-weight="700" fill="#4b2fb0" text-anchor="start">Nærliggende</text>
<text x="790" y="224" font-family="Open Sans, Segoe UI, Arial, sans-serif" font-size="15" font-weight="700" fill="#4b2fb0" text-anchor="start">statistikk</text>
<rect x="964" y="184" width="212" height="52" rx="8" fill="#f1f1fe" stroke="#f1f1fe" stroke-width="0"/>
<circle cx="986" cy="210" r="19" fill="#1e3a3f" stroke="#ffffff" stroke-width="3"/>
<text x="986" y="218" font-family="Open Sans, Segoe UI, Arial, sans-serif" font-size="22" font-weight="700" fill="#ffffff" text-anchor="middle">4</text>
<text x="1010" y="206" font-family="Open Sans, Segoe UI, Arial, sans-serif" font-size="15" font-weight="700" fill="#4b2fb0" text-anchor="start">Forklare</text>
<text x="1010" y="224" font-family="Open Sans, Segoe UI, Arial, sans-serif" font-size="15" font-weight="700" fill="#4b2fb0" text-anchor="start">forskjeller</text>
<rect x="1184" y="184" width="212" height="52" rx="8" fill="#f1f1fe" stroke="#f1f1fe" stroke-width="0"/>
<circle cx="1206" cy="210" r="19" fill="#1e3a3f" stroke="#ffffff" stroke-width="3"/>
<text x="1206" y="218" font-family="Open Sans, Segoe UI, Arial, sans-serif" font-size="22" font-weight="700" fill="#ffffff" text-anchor="middle">5</text>
<text x="1230" y="216" font-family="Open Sans, Segoe UI, Arial, sans-serif" font-size="15" font-weight="700" fill="#4b2fb0" text-anchor="start">Anbefalt inngang</text>
<rect x="60" y="250" width="232" height="58" rx="10" fill="#ffffff" stroke="#274246" stroke-width="1.8"/>
<text x="76" y="286" font-family="Open Sans, Segoe UI, Arial, sans-serif" font-size="18" font-weight="700" fill="#1e3a3f" text-anchor="start">I dag</text>
<rect x="304" y="250" width="212" height="58" rx="8" fill="#ffffff" stroke="#cdd3d4" stroke-width="1.2"/>
<line x1="318" y1="280" x2="498" y2="280" stroke="#cdd3d4" stroke-width="4" stroke-linecap="round"/>
<circle cx="336.0" cy="280" r="8" fill="#ffffff" stroke="#5e787a" stroke-width="2.5"/>
<rect x="524" y="250" width="212" height="58" rx="8" fill="#ffffff" stroke="#cdd3d4" stroke-width="1.2"/>
<line x1="538" y1="280" x2="718" y2="280" stroke="#cdd3d4" stroke-width="4" stroke-linecap="round"/>
<circle cx="619.0" cy="280" r="8" fill="#ffffff" stroke="#5e787a" stroke-width="2.5"/>
<rect x="744" y="250" width="212" height="58" rx="8" fill="#ffffff" stroke="#cdd3d4" stroke-width="1.2"/>
<line x1="758" y1="280" x2="938" y2="280" stroke="#cdd3d4" stroke-width="4" stroke-linecap="round"/>
<circle cx="812.0" cy="280" r="8" fill="#ffffff" stroke="#5e787a" stroke-width="2.5"/>
<rect x="964" y="250" width="212" height="58" rx="8" fill="#ffffff" stroke="#cdd3d4" stroke-width="1.2"/>
<line x1="978" y1="280" x2="1158" y2="280" stroke="#cdd3d4" stroke-width="4" stroke-linecap="round"/>
<circle cx="1122.0" cy="280" r="8" fill="#ffffff" stroke="#5e787a" stroke-width="2.5"/>
<rect x="1184" y="250" width="212" height="58" rx="8" fill="#ffffff" stroke="#cdd3d4" stroke-width="1.2"/>
<line x1="1198" y1="280" x2="1378" y2="280" stroke="#cdd3d4" stroke-width="4" stroke-linecap="round"/>
<circle cx="1360.0" cy="280" r="8" fill="#ffffff" stroke="#5e787a" stroke-width="2.5"/>
<rect x="60" y="318" width="232" height="170" rx="10" fill="#faf9ff" stroke="#7d5fea" stroke-width="1.8" stroke-dasharray="7 5"/>
<text x="76" y="350" font-family="Open Sans, Segoe UI, Arial, sans-serif" font-size="18" font-weight="700" fill="#4b2fb0" text-anchor="start">Kort sikt</text>
<text x="76" y="376" font-family="Open Sans, Segoe UI, Arial, sans-serif" font-size="13.5" font-weight="600" fill="#274246" text-anchor="start">Krever: dagens innhold,</text>
<text x="76" y="394" font-family="Open Sans, Segoe UI, Arial, sans-serif" font-size="13.5" font-weight="600" fill="#274246" text-anchor="start">godt indeksert</text>
<rect x="76" y="446" width="173.8" height="26" rx="13" fill="#ffffff" stroke="#5e787a" stroke-width="1.3" stroke-dasharray="5 4"/>
<text x="162.9" y="464" font-family="Open Sans, Segoe UI, Arial, sans-serif" font-size="12.5" font-weight="700" fill="#5e787a" text-anchor="middle">typisk 0–1 år · antatt</text>
<rect x="304" y="318" width="212" height="170" rx="8" fill="#ffffff" stroke="#e3dcfb" stroke-width="1.2"/>
<text x="318" y="348" font-family="Open Sans, Segoe UI, Arial, sans-serif" font-size="13.5" font-weight="600" fill="#1e3a3f" text-anchor="start">Bedre rangering</text>
<text x="318" y="366" font-family="Open Sans, Segoe UI, Arial, sans-serif" font-size="13.5" font-weight="600" fill="#1e3a3f" text-anchor="start">av treff</text>
<line x1="318" y1="466" x2="498" y2="466" stroke="#cdd3d4" stroke-width="4" stroke-linecap="round"/>
<circle cx="332.4" cy="466" r="8" fill="#7d5fea"/>
<rect x="524" y="318" width="212" height="170" rx="8" fill="#ffffff" stroke="#e3dcfb" stroke-width="1.2"/>
<text x="538" y="348" font-family="Open Sans, Segoe UI, Arial, sans-serif" font-size="13.5" font-weight="600" fill="#1e3a3f" text-anchor="start">Semantisk søk foreslår</text>
<text x="538" y="366" font-family="Open Sans, Segoe UI, Arial, sans-serif" font-size="13.5" font-weight="600" fill="#1e3a3f" text-anchor="start">begrep for brukerens ord</text>
<line x1="538" y1="466" x2="718" y2="466" stroke="#cdd3d4" stroke-width="4" stroke-linecap="round"/>
<polyline points="619.0,466.0 604.8,466.0" fill="none" stroke="#c3baff" stroke-width="2.5" stroke-linejoin="round" stroke-linecap="round"/>
<polygon points="598.4,466.0 610.4,460.4 610.4,471.6" fill="#c3baff"/>
<circle cx="588.4" cy="466" r="8" fill="#7d5fea"/>
<rect x="744" y="318" width="212" height="170" rx="8" fill="#ffffff" stroke="#e3dcfb" stroke-width="1.2"/>
<text x="758" y="348" font-family="Open Sans, Segoe UI, Arial, sans-serif" font-size="13.5" font-weight="600" fill="#1e3a3f" text-anchor="start">Enkle forslag fra</text>
<text x="758" y="366" font-family="Open Sans, Segoe UI, Arial, sans-serif" font-size="13.5" font-weight="600" fill="#1e3a3f" text-anchor="start">eksisterende lenker</text>
<line x1="758" y1="466" x2="938" y2="466" stroke="#cdd3d4" stroke-width="4" stroke-linecap="round"/>
<circle cx="803.0" cy="466" r="8" fill="#7d5fea"/>
<rect x="964" y="318" width="212" height="170" rx="8" fill="#ffffff" stroke="#e3dcfb" stroke-width="1.2"/>
<text x="978" y="348" font-family="Open Sans, Segoe UI, Arial, sans-serif" font-size="13.5" font-weight="400" fill="#5e787a" text-anchor="start">Ingen endring</text>
<line x1="978" y1="466" x2="1158" y2="466" stroke="#cdd3d4" stroke-width="4" stroke-linecap="round"/>
<circle cx="1122.0" cy="466" r="8" fill="#7d5fea"/>
<rect x="1184" y="318" width="212" height="170" rx="8" fill="#ffffff" stroke="#e3dcfb" stroke-width="1.2"/>
<text x="1198" y="348" font-family="Open Sans, Segoe UI, Arial, sans-serif" font-size="13.5" font-weight="400" fill="#5e787a" text-anchor="start">Ingen endring</text>
<line x1="1198" y1="466" x2="1378" y2="466" stroke="#cdd3d4" stroke-width="4" stroke-linecap="round"/>
<circle cx="1360.0" cy="466" r="8" fill="#7d5fea"/>
<rect x="60" y="498" width="232" height="170" rx="10" fill="#faf9ff" stroke="#7d5fea" stroke-width="1.8" stroke-dasharray="7 5"/>
<text x="76" y="530" font-family="Open Sans, Segoe UI, Arial, sans-serif" font-size="18" font-weight="700" fill="#4b2fb0" text-anchor="start">Mellomlang sikt</text>
<text x="76" y="556" font-family="Open Sans, Segoe UI, Arial, sans-serif" font-size="13.5" font-weight="600" fill="#274246" text-anchor="start">Krever: maskinlesbare</text>
<text x="76" y="574" font-family="Open Sans, Segoe UI, Arial, sans-serif" font-size="13.5" font-weight="600" fill="#274246" text-anchor="start">begreper og relasjoner (F3)</text>
<rect x="76" y="626" width="173.8" height="26" rx="13" fill="#ffffff" stroke="#5e787a" stroke-width="1.3" stroke-dasharray="5 4"/>
<text x="162.9" y="644" font-family="Open Sans, Segoe UI, Arial, sans-serif" font-size="12.5" font-weight="700" fill="#5e787a" text-anchor="middle">typisk 1–3 år · antatt</text>
<rect x="304" y="498" width="212" height="170" rx="8" fill="#ffffff" stroke="#e3dcfb" stroke-width="1.2"/>
<text x="318" y="528" font-family="Open Sans, Segoe UI, Arial, sans-serif" font-size="13.5" font-weight="400" fill="#5e787a" text-anchor="start">Som før</text>
<line x1="318" y1="646" x2="498" y2="646" stroke="#cdd3d4" stroke-width="4" stroke-linecap="round"/>
<circle cx="332.4" cy="646" r="8" fill="#7d5fea"/>
<rect x="524" y="498" width="212" height="170" rx="8" fill="#ffffff" stroke="#e3dcfb" stroke-width="1.2"/>
<text x="538" y="528" font-family="Open Sans, Segoe UI, Arial, sans-serif" font-size="13.5" font-weight="600" fill="#1e3a3f" text-anchor="start">Forslag kontrolleres</text>
<text x="538" y="546" font-family="Open Sans, Segoe UI, Arial, sans-serif" font-size="13.5" font-weight="600" fill="#1e3a3f" text-anchor="start">mot begrepsregisteret</text>
<line x1="538" y1="646" x2="718" y2="646" stroke="#cdd3d4" stroke-width="4" stroke-linecap="round"/>
<polyline points="588.4,646.0 579.6,646.0" fill="none" stroke="#c3baff" stroke-width="2.5" stroke-linejoin="round" stroke-linecap="round"/>
<polygon points="573.2,646.0 585.2,640.4 585.2,651.6" fill="#c3baff"/>
<circle cx="563.2" cy="646" r="8" fill="#7d5fea"/>
<rect x="744" y="498" width="212" height="170" rx="8" fill="#ffffff" stroke="#e3dcfb" stroke-width="1.2"/>
<text x="758" y="528" font-family="Open Sans, Segoe UI, Arial, sans-serif" font-size="13.5" font-weight="600" fill="#1e3a3f" text-anchor="start">Nærliggende statistikk</text>
<text x="758" y="546" font-family="Open Sans, Segoe UI, Arial, sans-serif" font-size="13.5" font-weight="600" fill="#1e3a3f" text-anchor="start">fra maskinlesbare</text>
<text x="758" y="564" font-family="Open Sans, Segoe UI, Arial, sans-serif" font-size="13.5" font-weight="600" fill="#1e3a3f" text-anchor="start">relasjoner</text>
<line x1="758" y1="646" x2="938" y2="646" stroke="#cdd3d4" stroke-width="4" stroke-linecap="round"/>
<polyline points="803.0,646.0 796.0,646.0" fill="none" stroke="#c3baff" stroke-width="2.5" stroke-linejoin="round" stroke-linecap="round"/>
<polygon points="789.6,646.0 801.6,640.4 801.6,651.6" fill="#c3baff"/>
<circle cx="779.6" cy="646" r="8" fill="#7d5fea"/>
<rect x="964" y="498" width="212" height="170" rx="8" fill="#ffffff" stroke="#e3dcfb" stroke-width="1.2"/>
<text x="978" y="528" font-family="Open Sans, Segoe UI, Arial, sans-serif" font-size="13.5" font-weight="600" fill="#1e3a3f" text-anchor="start">KI skriver utkast til</text>
<text x="978" y="546" font-family="Open Sans, Segoe UI, Arial, sans-serif" font-size="13.5" font-weight="600" fill="#1e3a3f" text-anchor="start">forklaringer, fag</text>
<text x="978" y="564" font-family="Open Sans, Segoe UI, Arial, sans-serif" font-size="13.5" font-weight="600" fill="#1e3a3f" text-anchor="start">godkjenner</text>
<line x1="978" y1="646" x2="1158" y2="646" stroke="#cdd3d4" stroke-width="4" stroke-linecap="round"/>
<polyline points="1122.0,646.0 1106.0,646.0" fill="none" stroke="#c3baff" stroke-width="2.5" stroke-linejoin="round" stroke-linecap="round"/>
<polygon points="1099.6,646.0 1111.6,640.4 1111.6,651.6" fill="#c3baff"/>
<circle cx="1089.6" cy="646" r="8" fill="#7d5fea"/>
<rect x="1184" y="498" width="212" height="170" rx="8" fill="#ffffff" stroke="#e3dcfb" stroke-width="1.2"/>
<text x="1198" y="528" font-family="Open Sans, Segoe UI, Arial, sans-serif" font-size="13.5" font-weight="600" fill="#1e3a3f" text-anchor="start">Forslag til inngang,</text>
<text x="1198" y="546" font-family="Open Sans, Segoe UI, Arial, sans-serif" font-size="13.5" font-weight="600" fill="#1e3a3f" text-anchor="start">fag godkjenner</text>
<line x1="1198" y1="646" x2="1378" y2="646" stroke="#cdd3d4" stroke-width="4" stroke-linecap="round"/>
<polyline points="1360.0,646.0 1344.0,646.0" fill="none" stroke="#c3baff" stroke-width="2.5" stroke-linejoin="round" stroke-linecap="round"/>
<polygon points="1337.6,646.0 1349.6,640.4 1349.6,651.6" fill="#c3baff"/>
<circle cx="1327.6" cy="646" r="8" fill="#7d5fea"/>
<rect x="60" y="678" width="232" height="170" rx="10" fill="#faf9ff" stroke="#7d5fea" stroke-width="1.8" stroke-dasharray="7 5"/>
<text x="76" y="710" font-family="Open Sans, Segoe UI, Arial, sans-serif" font-size="18" font-weight="700" fill="#4b2fb0" text-anchor="start">Lang sikt</text>
<text x="76" y="736" font-family="Open Sans, Segoe UI, Arial, sans-serif" font-size="13.5" font-weight="600" fill="#274246" text-anchor="start">Krever: hele autoritets-</text>
<text x="76" y="754" font-family="Open Sans, Segoe UI, Arial, sans-serif" font-size="13.5" font-weight="600" fill="#274246" text-anchor="start">kjeden maskinlesbar</text>
<rect x="76" y="806" width="166.9" height="26" rx="13" fill="#ffffff" stroke="#5e787a" stroke-width="1.3" stroke-dasharray="5 4"/>
<text x="159.45" y="824" font-family="Open Sans, Segoe UI, Arial, sans-serif" font-size="12.5" font-weight="700" fill="#5e787a" text-anchor="middle">typisk 3+ år · antatt</text>
<rect x="304" y="678" width="212" height="170" rx="8" fill="#ffffff" stroke="#e3dcfb" stroke-width="1.2"/>
<text x="318" y="708" font-family="Open Sans, Segoe UI, Arial, sans-serif" font-size="13.5" font-weight="600" fill="#1e3a3f" text-anchor="start">Glir inn i dialog</text>
<line x1="318" y1="826" x2="498" y2="826" stroke="#cdd3d4" stroke-width="4" stroke-linecap="round"/>
<circle cx="328.8" cy="826" r="8" fill="#7d5fea"/>
<rect x="524" y="678" width="212" height="170" rx="8" fill="#ffffff" stroke="#e3dcfb" stroke-width="1.2"/>
<text x="538" y="708" font-family="Open Sans, Segoe UI, Arial, sans-serif" font-size="13.5" font-weight="600" fill="#1e3a3f" text-anchor="start">Løses i dialog med</text>
<text x="538" y="726" font-family="Open Sans, Segoe UI, Arial, sans-serif" font-size="13.5" font-weight="600" fill="#1e3a3f" text-anchor="start">oppfølgingsspørsmål</text>
<line x1="538" y1="826" x2="718" y2="826" stroke="#cdd3d4" stroke-width="4" stroke-linecap="round"/>
<circle cx="552.4" cy="826" r="8" fill="#7d5fea"/>
<rect x="744" y="678" width="212" height="170" rx="8" fill="#ffffff" stroke="#e3dcfb" stroke-width="1.2"/>
<text x="758" y="708" font-family="Open Sans, Segoe UI, Arial, sans-serif" font-size="13.5" font-weight="600" fill="#1e3a3f" text-anchor="start">Assistenten viser</text>
<text x="758" y="726" font-family="Open Sans, Segoe UI, Arial, sans-serif" font-size="13.5" font-weight="600" fill="#1e3a3f" text-anchor="start">sammenhenger</text>
<line x1="758" y1="826" x2="938" y2="826" stroke="#cdd3d4" stroke-width="4" stroke-linecap="round"/>
<circle cx="772.4" cy="826" r="8" fill="#7d5fea"/>
<rect x="964" y="678" width="212" height="170" rx="8" fill="#ffffff" stroke="#e3dcfb" stroke-width="1.2"/>
<text x="978" y="708" font-family="Open Sans, Segoe UI, Arial, sans-serif" font-size="13.5" font-weight="600" fill="#1e3a3f" text-anchor="start">Forklaringer i dialog,</text>
<text x="978" y="726" font-family="Open Sans, Segoe UI, Arial, sans-serif" font-size="13.5" font-weight="600" fill="#1e3a3f" text-anchor="start">bygget på godkjent</text>
<text x="978" y="744" font-family="Open Sans, Segoe UI, Arial, sans-serif" font-size="13.5" font-weight="600" fill="#1e3a3f" text-anchor="start">innhold</text>
<line x1="978" y1="826" x2="1158" y2="826" stroke="#cdd3d4" stroke-width="4" stroke-linecap="round"/>
<polyline points="1089.6,826.0 1084.4,826.0" fill="none" stroke="#c3baff" stroke-width="2.5" stroke-linejoin="round" stroke-linecap="round"/>
<polygon points="1078.0,826.0 1090.0,820.4 1090.0,831.6" fill="#c3baff"/>
<circle cx="1068.0" cy="826" r="8" fill="#7d5fea"/>
<rect x="1184" y="678" width="212" height="170" rx="8" fill="#ffffff" stroke="#e3dcfb" stroke-width="1.2"/>
<text x="1198" y="708" font-family="Open Sans, Segoe UI, Arial, sans-serif" font-size="13.5" font-weight="600" fill="#1e3a3f" text-anchor="start">Anbefaling i dialog,</text>
<text x="1198" y="726" font-family="Open Sans, Segoe UI, Arial, sans-serif" font-size="13.5" font-weight="600" fill="#1e3a3f" text-anchor="start">innenfor faglig ansvar</text>
<line x1="1198" y1="826" x2="1378" y2="826" stroke="#cdd3d4" stroke-width="4" stroke-linecap="round"/>
<polyline points="1327.6,826.0 1304.4,826.0" fill="none" stroke="#c3baff" stroke-width="2.5" stroke-linejoin="round" stroke-linecap="round"/>
<polygon points="1298.0,826.0 1310.0,820.4 1310.0,831.6" fill="#c3baff"/>
<circle cx="1288.0" cy="826" r="8" fill="#7d5fea"/>
<line x1="1068.0" y1="262" x2="1068.0" y2="298" stroke="#7d5fea" stroke-width="3"/>
<line x1="1068.0" y1="448" x2="1068.0" y2="484" stroke="#7d5fea" stroke-width="3"/>
<line x1="1068.0" y1="628" x2="1068.0" y2="664" stroke="#7d5fea" stroke-width="3"/>
<line x1="1068.0" y1="808" x2="1068.0" y2="844" stroke="#7d5fea" stroke-width="3"/>
<line x1="1068.0" y1="844" x2="1068.0" y2="858" stroke="#7d5fea" stroke-width="2" stroke-dasharray="3 3"/>
<line x1="1288.0" y1="262" x2="1288.0" y2="298" stroke="#7d5fea" stroke-width="3"/>
<line x1="1288.0" y1="448" x2="1288.0" y2="484" stroke="#7d5fea" stroke-width="3"/>
<line x1="1288.0" y1="628" x2="1288.0" y2="664" stroke="#7d5fea" stroke-width="3"/>
<line x1="1288.0" y1="808" x2="1288.0" y2="844" stroke="#7d5fea" stroke-width="3"/>
<line x1="1288.0" y1="844" x2="1288.0" y2="858" stroke="#7d5fea" stroke-width="2" stroke-dasharray="3 3"/>
<rect x="1000" y="858" width="360" height="28" rx="14" fill="#ffffff" stroke="#7d5fea" stroke-width="1.4"/>
<text x="1180" y="877" font-family="Open Sans, Segoe UI, Arial, sans-serif" font-size="14" font-weight="700" fill="#4b2fb0" text-anchor="middle">grense for faglig ansvar</text>
<rect x="304" y="858" width="612" height="28" rx="14" fill="#ffffff" stroke="#274246" stroke-width="1.3"/>
<text x="610.0" y="877" font-family="Open Sans, Segoe UI, Arial, sans-serif" font-size="14" font-weight="700" fill="#274246" text-anchor="middle">lang sikt: her møtes søk og assistent (se F5)</text>
<rect x="60" y="904" width="1340" height="80" rx="10" fill="#f8fbfb" stroke="#cdd3d4" stroke-width="1.2"/>
<circle cx="90" cy="944" r="8" fill="#ffffff" stroke="#5e787a" stroke-width="2.5"/>
<text x="106" y="950" font-family="Open Sans, Segoe UI, Arial, sans-serif" font-size="15" font-weight="400" fill="#274246" text-anchor="start">i dag (fra F4)</text>
<circle cx="250" cy="944" r="8" fill="#7d5fea"/>
<text x="266" y="950" font-family="Open Sans, Segoe UI, Arial, sans-serif" font-size="15" font-weight="400" fill="#274246" text-anchor="start">horisonten</text>
<text x="380" y="940" font-family="Open Sans, Segoe UI, Arial, sans-serif" font-size="15" font-weight="400" fill="#274246" text-anchor="start">Punktet på linjen: venstre = kan gjøres maskinelt, høyre = krever faglig og redaksjonelt skjønn.</text>
<text x="380" y="964" font-family="Open Sans, Segoe UI, Arial, sans-serif" font-size="15" font-weight="600" fill="#5e787a" text-anchor="start">Plasseringene er et forslag til diskusjon, ikke en vurdering av verktøy.</text>
</svg>
